<svg width="225" height="225" viewBox="0 0 225 225" fill="none" xmlns="http://www.w3.org/2000/svg">
<g clip-path="url(#clip0_620_2)">
<path d="M144.837 1.36047C141.698 3.13954 141.279 4.18605 141.279 13.186V21.6628L122.756 22.2907C99.9419 23.0233 86.3372 25.5349 71.6861 31.814C43.6395 43.6395 20.8256 66.7675 9.10466 95.2326C4.70931 105.802 1.25582 121.814 0.837215 133.221C0.523261 140.337 0.837215 141.593 2.51163 142.954C5.23256 144.837 8.7907 144.837 10.4651 142.849C11.1977 142.012 13.5 137.93 15.593 133.744C21.6628 121.605 27 114.279 37.1512 104.023C51.3837 89.5814 66.9768 80.1628 85.814 74.7209C98.3721 71.0581 106.012 70.1163 124.849 70.1163H141.279V79.5349C141.279 88.4302 141.384 88.9535 144 90.7326C146.512 92.407 146.93 92.407 149.965 90.6279C151.849 89.6861 156.977 85.3954 161.372 81.314C165.767 77.1279 175.291 68.5465 182.407 62.2675C189.628 55.8837 195.907 49.814 196.535 48.6628C198.105 45.2093 196.43 42.593 186.593 34.0116C181.57 29.407 171.314 20.3023 163.988 13.7093C156.558 7.01163 149.756 1.25582 148.709 0.941862C147.767 0.523258 145.988 0.73256 144.837 1.36047Z" fill="url(#paint0_linear_620_2)"/>
<path d="M214.326 82.3605C213.384 83.407 210.977 87.6977 208.884 91.9884C194.861 120.558 167.128 143.058 135.523 151.326C126.419 153.733 122.337 154.151 104.442 154.57L83.721 155.093V145.57C83.721 136.674 83.6163 135.942 81.1047 134.372C79.6396 133.43 77.6512 133.012 76.5 133.43C73.5698 134.372 28.9884 174.558 27.9419 177.174C27.4186 178.535 27.6279 180.314 28.3605 181.57C29.9303 184.395 73.1512 222.907 76.0814 224.267C77.8605 225 79.1163 224.895 81.1047 223.535C83.6163 221.86 83.721 221.337 83.721 212.547V203.337L103.919 202.709C131.128 201.872 142.744 199.256 161.686 189.628C198 171 220.709 136.465 224.477 93.9768C225.105 87.2791 224.895 85.2907 223.535 83.1977C221.442 80.0582 216.733 79.6396 214.326 82.3605Z" fill="url(#paint1_linear_620_2)"/>
</g>
<defs>
<linearGradient id="paint0_linear_620_2" x1="5.27944" y1="136.374" x2="207.481" y2="100.876" gradientUnits="userSpaceOnUse">
<stop stop-color="#FE734C"/>
<stop offset="1" stop-color="#FB3D58"/>
</linearGradient>
<linearGradient id="paint1_linear_620_2" x1="32.2212" y1="216.709" x2="235.284" y2="181.039" gradientUnits="userSpaceOnUse">
<stop stop-color="#FE734C"/>
<stop offset="1" stop-color="#FB3D58"/>
</linearGradient>
<clipPath id="clip0_620_2">
<rect width="225" height="225" fill="white"/>
</clipPath>
</defs>
</svg>
